<svg width="100" height="100" viewBox="0 0 100 100" fill="none" xmlns="http://www.w3.org/2000/svg">
<g opacity="0.4">
<path d="M8.33331 29C8.33331 26.7909 10.1242 25 12.3333 25H27.0259C28.3633 25 29.6122 24.3316 30.3541 23.2188L36.3125 14.2812C37.0544 13.1684 38.3033 12.5 39.6407 12.5H60.3592C61.6967 12.5 62.9456 13.1684 63.6874 14.2812L69.6458 23.2188C70.3877 24.3316 71.6366 25 72.974 25H87.6666C89.8758 25 91.6666 26.7909 91.6666 29V83.5C91.6666 85.7091 89.8758 87.5 87.6666 87.5H12.3333C10.1242 87.5 8.33331 85.7091 8.33331 83.5V29Z" stroke="white" stroke-width="2" stroke-linecap="round" stroke-linejoin="round"/>
<ellipse cx="50" cy="54.1667" rx="16.6667" ry="16.6667" stroke="white" stroke-width="2" stroke-linecap="round" stroke-linejoin="round"/>
</g>
</svg>
