<svg width="263" height="50" viewBox="0 0 263 50" fill="none" xmlns="http://www.w3.org/2000/svg">
<path d="M34.5071 18.0285C34.0486 14.1375 32.7567 11.1543 30.6313 9.07912C28.5058 6.96066 25.7344 5.87981 22.3171 5.83658C20.15 5.83658 18.1495 6.33377 16.3158 7.32815C14.4821 8.32253 12.8985 9.72763 11.5649 11.5435C10.2313 13.316 9.18938 15.4345 8.43923 17.8988C7.73075 20.3199 7.37651 22.9788 7.37651 25.8755C7.37651 29.8098 8.04331 33.3117 9.37692 36.3813C10.7105 39.4077 12.5442 41.7639 14.878 43.4501C17.2535 45.1362 19.9416 45.9792 22.9422 45.9792C25.6094 45.9792 28.2349 45.3307 30.8188 44.0337C33.4443 42.6935 35.6115 40.8128 37.3201 38.3917L39.3831 40.2075C37.5077 42.888 35.5073 44.9416 33.3818 46.3684C31.2564 47.7951 29.131 48.7462 27.0055 49.2218C24.9218 49.7406 23.0255 50 21.3169 50C18.1912 50 15.3156 49.4163 12.6901 48.249C10.0646 47.0817 7.79326 45.4604 5.8762 43.3852C4.00082 41.2668 2.54219 38.824 1.50031 36.0571C0.500102 33.2469 0 30.2205 0 26.978C0 23.9516 0.458427 20.9901 1.37528 18.0934C2.29214 15.1967 3.64658 12.5811 5.43861 10.2464C7.23065 7.86857 9.48111 5.9879 12.19 4.60441C14.9406 3.22093 18.1287 2.52918 21.7545 2.52918C23.8799 2.52918 25.9428 2.83182 27.9432 3.4371C29.9853 4.04237 31.944 4.9719 33.8194 6.22568L33.5069 2.98314H37.3827V18.0285H34.5071Z" fill="white"/>
<path d="M63.0949 46.2387C64.3452 46.2387 65.2204 45.936 65.7205 45.3307C66.2623 44.7255 66.5748 43.8824 66.6582 42.8016C66.7832 41.7207 66.8457 40.4669 66.8457 39.0402L66.7832 29.9611C66.7832 26.5456 66.2623 23.9948 65.2204 22.3087C64.2202 20.5793 62.5948 19.7363 60.3444 19.7795C58.9691 19.8227 57.6147 20.1686 56.2811 20.8171C54.9891 21.4656 53.9056 22.2871 53.0304 23.2815V40.9209C53.0304 41.6991 53.0095 42.4989 52.9679 43.3204C52.9262 44.0986 52.8637 44.8984 52.7803 45.7198C53.4471 45.6766 54.1139 45.655 54.7807 45.655C55.4892 45.6118 56.1352 45.5685 56.7186 45.5253V48.9624H42.7783V46.2387C44.0285 46.2387 44.9037 45.936 45.4038 45.3307C45.9039 44.7255 46.2165 43.8824 46.3415 42.8016C46.4665 41.7207 46.5291 40.4669 46.5291 39.0402V9.72763C46.5291 8.99265 46.5291 8.25767 46.5291 7.5227C46.5707 6.74449 46.6332 5.92305 46.7166 5.05837C46.0081 5.1016 45.258 5.14483 44.4661 5.18807C43.6743 5.18807 42.945 5.20969 42.2782 5.25292V1.81582C44.1536 1.81582 45.6539 1.72936 46.7791 1.55642C47.9043 1.34025 48.7587 1.10246 49.3421 0.843062C49.9673 0.583659 50.4257 0.302639 50.7174 0H53.0304V19.585C53.9472 18.8067 54.9683 18.115 56.0935 17.5097C57.2187 16.9045 58.3648 16.4289 59.5317 16.083C60.7403 15.6939 61.8655 15.4994 62.9074 15.4994C66.6165 15.4994 69.2629 16.6667 70.8465 19.0013C72.4719 21.3359 73.3054 24.9892 73.347 29.9611V40.9209C73.347 41.6991 73.3262 42.4989 73.2845 43.3204C73.2845 44.0986 73.222 44.8984 73.097 45.7198C73.7638 45.6766 74.4514 45.655 75.1599 45.655C75.8684 45.6118 76.5144 45.5685 77.0978 45.5253V48.9624H63.0949V46.2387Z" fill="white"/>
<path d="M81.439 46.2387C82.6893 46.2387 83.5645 45.936 84.0646 45.3307C84.5647 44.7255 84.8564 43.8824 84.9397 42.8016C85.0648 41.7207 85.1273 40.4669 85.1273 39.0402V25.6161C85.1273 24.8811 85.1481 24.1461 85.1898 23.4112C85.2315 22.6329 85.294 21.8115 85.3773 20.9468C84.6689 20.9901 83.9187 21.0333 83.1269 21.0765C82.335 21.0765 81.6057 21.0981 80.9389 21.1414V17.7043C82.8143 17.7043 84.2938 17.6178 85.3773 17.4449C86.5026 17.2287 87.3569 16.9909 87.9404 16.7315C88.5655 16.4721 89.0239 16.1911 89.3156 15.8885H91.6911V40.9209C91.6911 41.6991 91.6703 42.4989 91.6286 43.3204C91.5869 44.0986 91.5244 44.8984 91.4411 45.7198C92.1079 45.6766 92.7747 45.655 93.4415 45.655C94.15 45.6118 94.7959 45.5685 95.3794 45.5253V48.9624H81.439V46.2387ZM88.1279 9.92218C87.0443 9.92218 86.1275 9.51146 85.3773 8.69001C84.6272 7.82534 84.2521 6.78772 84.2521 5.57717C84.2521 4.36663 84.648 3.35063 85.4398 2.52918C86.2317 1.66451 87.1277 1.23217 88.1279 1.23217C89.2115 1.23217 90.1075 1.66451 90.8159 2.52918C91.5661 3.35063 91.9412 4.36663 91.9412 5.57717C91.9412 6.78772 91.5661 7.82534 90.8159 8.69001C90.1075 9.51146 89.2115 9.92218 88.1279 9.92218Z" fill="white"/>
<path d="M118.378 48.9624C118.294 48.2706 118.232 47.6654 118.19 47.1466C118.149 46.6278 118.086 46.0873 118.003 45.5253C116.586 46.9952 115.065 48.1193 113.439 48.8975C111.814 49.6325 110.126 50 108.376 50C105.375 50 103.104 49.2434 101.562 47.7302C100.061 46.1738 99.3113 44.2499 99.3113 41.9585C99.3113 39.9697 99.874 38.2404 100.999 36.7704C102.124 35.3005 103.604 34.1115 105.438 33.2036C107.271 32.2525 109.272 31.5607 111.439 31.1284C113.606 30.6528 115.731 30.415 117.815 30.415V26.5888C117.815 25.2054 117.69 23.93 117.44 22.7626C117.19 21.5521 116.669 20.5793 115.877 19.8444C115.127 19.0662 113.939 18.677 112.314 18.677C111.23 18.6338 110.147 18.85 109.063 19.3256C107.98 19.7579 107.146 20.4929 106.563 21.5305C106.896 21.8764 107.105 22.2871 107.188 22.7626C107.313 23.195 107.375 23.6057 107.375 23.9948C107.375 24.6001 107.125 25.2918 106.625 26.07C106.125 26.805 105.271 27.1509 104.062 27.1077C103.062 27.1077 102.291 26.7618 101.749 26.07C101.249 25.3351 100.999 24.492 100.999 23.5409C100.999 21.9844 101.541 20.601 102.625 19.3904C103.75 18.1799 105.271 17.2287 107.188 16.537C109.105 15.8452 111.251 15.4994 113.627 15.4994C117.211 15.4994 119.878 16.4721 121.628 18.4176C123.42 20.3632 124.316 23.4328 124.316 27.6265C124.316 29.1829 124.316 30.6745 124.316 32.1012C124.316 33.5279 124.296 34.9546 124.254 36.3813C124.254 37.808 124.254 39.3212 124.254 40.9209C124.254 41.5694 124.233 42.3044 124.191 43.1258C124.15 43.9473 124.087 44.8119 124.004 45.7198C124.712 45.6766 125.442 45.6334 126.192 45.5901C126.942 45.5469 127.65 45.5253 128.317 45.5253V48.9624H118.378ZM117.815 33.3982C116.482 33.4847 115.106 33.6792 113.689 33.9818C112.314 34.2845 111.064 34.7384 109.939 35.3437C108.813 35.949 107.896 36.7272 107.188 37.6783C106.521 38.6295 106.188 39.7752 106.188 41.1154C106.271 42.5854 106.73 43.6662 107.563 44.358C108.438 45.0497 109.459 45.3956 110.626 45.3956C112.085 45.3956 113.377 45.1146 114.502 44.5525C115.627 43.9473 116.732 43.1258 117.815 42.0882C117.773 41.6126 117.753 41.1371 117.753 40.6615C117.753 40.1427 117.753 39.6022 117.753 39.0402C117.753 38.6511 117.753 37.9377 117.753 36.9001C117.794 35.8193 117.815 34.652 117.815 33.3982Z" fill="white"/>
<path d="M166.126 18.0285C165.667 14.1375 164.375 11.1543 162.25 9.07912C160.125 6.96066 157.353 5.87981 153.936 5.83658C151.769 5.83658 149.768 6.33377 147.935 7.32815C146.101 8.32253 144.517 9.72763 143.184 11.5435C141.85 13.316 140.808 15.4345 140.058 17.8988C139.349 20.3199 138.995 22.9788 138.995 25.8755C138.995 29.8098 139.662 33.3117 140.996 36.3813C142.329 39.4077 144.163 41.7639 146.497 43.4501C148.872 45.1362 151.56 45.9792 154.561 45.9792C157.228 45.9792 159.854 45.3307 162.438 44.0337C165.063 42.6935 167.23 40.8128 168.939 38.3917L171.002 40.2075C169.126 42.888 167.126 44.9416 165.001 46.3684C162.875 47.7951 160.75 48.7462 158.624 49.2218C156.54 49.7406 154.644 50 152.936 50C149.81 50 146.934 49.4163 144.309 48.249C141.683 47.0817 139.412 45.4604 137.495 43.3852C135.62 41.2668 134.161 38.824 133.119 36.0571C132.119 33.2469 131.619 30.2205 131.619 26.978C131.619 23.9516 132.077 20.9901 132.994 18.0934C133.911 15.1967 135.265 12.5811 137.057 10.2464C138.849 7.86857 141.1 5.9879 143.809 4.60441C146.559 3.22093 149.747 2.52918 153.373 2.52918C155.499 2.52918 157.562 2.83182 159.562 3.4371C161.604 4.04237 163.563 4.9719 165.438 6.22568L165.126 2.98314H169.001V18.0285H166.126Z" fill="white"/>
<path d="M194.714 46.2387C195.964 46.2387 196.839 45.936 197.339 45.3307C197.881 44.7255 198.194 43.8824 198.277 42.8016C198.402 41.7207 198.464 40.4669 198.464 39.0402L198.402 29.9611C198.402 26.5456 197.881 23.9948 196.839 22.3087C195.839 20.5793 194.214 19.7363 191.963 19.7795C190.588 19.8227 189.233 20.1686 187.9 20.8171C186.608 21.4656 185.524 22.2871 184.649 23.2815V40.9209C184.649 41.6991 184.628 42.4989 184.587 43.3204C184.545 44.0986 184.482 44.8984 184.399 45.7198C185.066 45.6766 185.733 45.655 186.399 45.655C187.108 45.6118 187.754 45.5685 188.337 45.5253V48.9624H174.397V46.2387C175.647 46.2387 176.522 45.936 177.023 45.3307C177.523 44.7255 177.835 43.8824 177.96 42.8016C178.085 41.7207 178.148 40.4669 178.148 39.0402V9.72763C178.148 8.99265 178.148 8.25767 178.148 7.5227C178.189 6.74449 178.252 5.92305 178.335 5.05837C177.627 5.1016 176.877 5.14483 176.085 5.18807C175.293 5.18807 174.564 5.20969 173.897 5.25292V1.81582C175.772 1.81582 177.273 1.72936 178.398 1.55642C179.523 1.34025 180.377 1.10246 180.961 0.843062C181.586 0.583659 182.044 0.302639 182.336 0H184.649V19.585C185.566 18.8067 186.587 18.115 187.712 17.5097C188.837 16.9045 189.984 16.4289 191.15 16.083C192.359 15.6939 193.484 15.4994 194.526 15.4994C198.235 15.4994 200.882 16.6667 202.465 19.0013C204.091 21.3359 204.924 24.9892 204.966 29.9611V40.9209C204.966 41.6991 204.945 42.4989 204.903 43.3204C204.903 44.0986 204.841 44.8984 204.716 45.7198C205.383 45.6766 206.07 45.655 206.779 45.655C207.487 45.6118 208.133 45.5685 208.717 45.5253V48.9624H194.714V46.2387Z" fill="white"/>
<path d="M213.058 46.2387C214.308 46.2387 215.183 45.936 215.683 45.3307C216.183 44.7255 216.475 43.8824 216.558 42.8016C216.683 41.7207 216.746 40.4669 216.746 39.0402V25.6161C216.746 24.8811 216.767 24.1461 216.809 23.4112C216.85 22.6329 216.913 21.8115 216.996 20.9468C216.288 20.9901 215.537 21.0333 214.746 21.0765C213.954 21.0765 213.224 21.0981 212.558 21.1414V17.7043C214.433 17.7043 215.913 17.6178 216.996 17.4449C218.121 17.2287 218.976 16.9909 219.559 16.7315C220.184 16.4721 220.643 16.1911 220.934 15.8885H223.31V40.9209C223.31 41.6991 223.289 42.4989 223.247 43.3204C223.206 44.0986 223.143 44.8984 223.06 45.7198C223.727 45.6766 224.393 45.655 225.06 45.655C225.769 45.6118 226.415 45.5685 226.998 45.5253V48.9624H213.058V46.2387ZM219.747 9.92218C218.663 9.92218 217.746 9.51146 216.996 8.69001C216.246 7.82534 215.871 6.78772 215.871 5.57717C215.871 4.36663 216.267 3.35063 217.059 2.52918C217.85 1.66451 218.746 1.23217 219.747 1.23217C220.83 1.23217 221.726 1.66451 222.435 2.52918C223.185 3.35063 223.56 4.36663 223.56 5.57717C223.56 6.78772 223.185 7.82534 222.435 8.69001C221.726 9.51146 220.83 9.92218 219.747 9.92218Z" fill="white"/>
<path d="M246.996 50C244.037 50 241.37 49.3083 238.994 47.9248C236.619 46.5413 234.723 44.6174 233.306 42.153C231.93 39.6455 231.243 36.7704 231.243 33.5279C231.243 30.0259 231.93 26.9347 233.306 24.2542C234.723 21.5305 236.619 19.3904 238.994 17.834C241.37 16.2776 244.016 15.4994 246.933 15.4994C249.892 15.4994 252.559 16.2127 254.935 17.6394C257.31 19.0229 259.186 20.9684 260.561 23.476C261.978 25.9403 262.687 28.7938 262.687 32.0363C262.687 35.4518 261.999 38.5214 260.624 41.2451C259.248 43.9689 257.373 46.109 254.997 47.6654C252.664 49.2218 249.996 50 246.996 50ZM247.433 46.7575C249.434 46.7142 250.997 46.0657 252.122 44.8119C253.289 43.5582 254.122 41.9585 254.622 40.013C255.123 38.0242 255.373 35.9706 255.373 33.8521C255.373 31.9931 255.206 30.1773 254.872 28.4047C254.581 26.5888 254.101 24.946 253.435 23.476C252.768 22.0061 251.893 20.8387 250.809 19.9741C249.726 19.0661 248.413 18.6338 246.871 18.677C244.912 18.677 243.308 19.3039 242.057 20.5577C240.849 21.8115 239.953 23.4328 239.369 25.4215C238.827 27.3671 238.557 29.4423 238.557 31.6472C238.557 34.198 238.869 36.6191 239.494 38.9105C240.119 41.2019 241.078 43.0826 242.37 44.5525C243.704 46.0225 245.391 46.7575 247.433 46.7575Z" fill="white"/>
</svg>
