<svg width="20" height="20" viewBox="0 0 20 20" fill="none" xmlns="http://www.w3.org/2000/svg">
<path d="M 10 11.2 C 10.3 11.2 10.7 11.1 11 11 C 11.3 10.9 11.6 10.7 11.8 10.4 C 12.1 10.2 12.3 9.9 12.4 9.6 C 12.5 9.3 12.6 8.9 12.6 8.6 C 12.6 8.3 12.5 7.9 12.4 7.6 C 12.3 7.3 12.1 7 11.8 6.8 C 11.6 6.5 11.3 6.3 11 6.2 C 10.7 6.1 10.3 6 10 6 C 9.3 6 8.6 6.3 8.2 6.8 C 7.7 7.2 7.4 7.9 7.4 8.6 C 7.4 9.3 7.7 9.9 8.2 10.4 C 8.6 10.9 9.3 11.2 10 11.2 Z" stroke="white"/>
<path d="M 3 7.1 C 4.7 -0.1 15.4 -0.1 17 7.1 C 17.9 11.3 15.3 14.9 13 17.1 C 12.2 17.9 11.1 18.3 10 18.3 C 8.9 18.3 7.8 17.9 7 17.1 C 4.7 14.9 2.1 11.3 3 7.1 Z" stroke="white"/>
</svg>
