<svg width="26" height="24" viewBox="0 0 26 24" fill="none" xmlns="http://www.w3.org/2000/svg">
<path d="M 11.2 1.3 C 11.9 -0.3 14.1 -0.3 14.8 1.3 L 16.9 6 C 17.1 6.6 17.8 7.1 18.5 7.2 L 23.6 7.6 C 25.3 7.8 26 10 24.7 11.1 L 20.9 14.5 C 20.3 15 20.1 15.7 20.3 16.4 L 21.4 21.4 C 21.8 23.1 19.9 24.5 18.4 23.6 L 14 21 C 13.4 20.6 12.6 20.6 12 21 L 7.6 23.6 C 6.1 24.5 4.2 23.1 4.6 21.4 L 5.7 16.4 C 5.9 15.7 5.7 15 5.1 14.5 L 1.3 11.1 C 0 10 0.7 7.8 2.4 7.6 L 7.5 7.2 C 8.2 7.1 8.9 6.6 9.1 6 L 11.2 1.3 Z" fill="#d24509"/>
</svg>
