<svg width="24" height="24" viewBox="0 0 24 24" fill="none" xmlns="http://www.w3.org/2000/svg">
<path d="M 6 6.8 H 0.8 C 0.8 6.8 1.7 7.3 2.2 8.4 C 1.3 9.4 0.8 10.6 0.8 12 C 0.8 14.9 3.1 17.3 6 17.3 C 8.9 17.3 11.3 14.9 11.3 12 C 11.3 9.1 8.9 6.8 6 6.8 Z" stroke="white" stroke-miterlimit="10" stroke-linecap="round" stroke-linejoin="round"/>
<path d="M 10.3 15 L 12.1 17.2 L 13.7 15 M 4.5 6.7 C 6.5 4.9 9.2 3.8 12 3.8 C 14.8 3.8 17.5 4.9 19.5 6.7" stroke="white" stroke-miterlimit="10" stroke-linecap="round" stroke-linejoin="round"/>
<path d="M 6 14.3 C 7.2 14.3 8.3 13.2 8.3 12 C 8.3 10.8 7.2 9.8 6 9.8 C 4.8 9.8 3.8 10.8 3.8 12 C 3.8 13.2 4.8 14.3 6 14.3 Z" stroke="white" stroke-miterlimit="10" stroke-linecap="round" stroke-linejoin="round"/>
<path d="M 12.8 12 C 12.8 14.9 15.1 17.3 18 17.3 C 20.9 17.3 23.3 14.9 23.3 12 C 23.3 10.6 22.7 9.4 21.8 8.4 C 22.3 7.3 23.3 6.8 23.3 6.8 H 18 C 15.1 6.8 12.8 9.1 12.8 12 Z" stroke="white" stroke-miterlimit="10" stroke-linecap="round" stroke-linejoin="round"/>
<path d="M 18 14.3 C 19.2 14.3 20.3 13.2 20.3 12 C 20.3 10.8 19.2 9.8 18 9.8 C 16.8 9.8 15.8 10.8 15.8 12 C 15.8 13.2 16.8 14.3 18 14.3 Z" stroke="white" stroke-miterlimit="10" stroke-linecap="round" stroke-linejoin="round"/>
</svg>
